<svg version="1.1" id="Layer_1" xmlns="http://www.w3.org/2000/svg" xmlns:xlink="http://www.w3.org/1999/xlink" x="0px" y="0px"
	 width="100%" viewBox="0 0 1200 1080" enable-background="new 0 0 1200 1080" xml:space="preserve">
<path fill="#000000" opacity="1.000000" stroke="none" 
	d="
M1201.000000,401.000000 
	C1201.000000,628.000000 1201.000000,854.500000 1201.000000,1081.000000 
	C801.000000,1081.000000 401.000000,1081.000000 1.000000,1081.000000 
	C1.000000,721.000000 1.000000,361.000000 1.000000,1.000000 
	C401.000000,1.000000 801.000000,1.000000 1201.000000,1.000000 
	C1201.000000,134.166672 1201.000000,267.333344 1201.000000,401.000000 
M655.930298,575.381226 
	C652.220581,581.094177 648.677002,586.923584 644.770447,592.498596 
	C632.384033,610.175171 617.481812,625.543030 600.478333,638.745728 
	C582.930542,652.371033 563.612793,663.049194 542.847351,671.015686 
	C521.382141,679.250732 499.114960,683.943604 476.176392,684.876892 
	C466.286469,685.279236 456.339264,684.392090 446.422363,683.986328 
	C430.687683,683.342468 415.508118,679.745239 400.515381,675.188843 
	C369.127472,665.649902 341.580872,649.258118 317.223206,627.563782 
	C304.049683,615.830688 292.715363,602.336304 282.867523,587.614197 
	C272.874084,572.674438 264.923950,556.787964 258.474731,539.997925 
	C250.258987,518.608887 245.263290,496.440979 245.202896,473.749939 
	C244.808701,325.606140 245.000061,177.460770 244.999985,29.315905 
	C244.999985,27.361799 245.000000,25.407694 245.000000,23.273567 
	C204.816742,23.273567 165.097000,23.273567 125.000000,23.273567 
	C125.000000,25.507332 125.000000,27.472214 125.000000,29.437096 
	C125.000000,171.916122 124.980782,314.395142 125.042870,456.874146 
	C125.047050,466.468353 125.213165,476.104675 126.108055,485.645996 
	C127.326828,498.640350 128.992264,511.614288 131.047409,524.504272 
	C135.599838,553.057617 144.867294,580.240051 157.801788,605.949097 
	C166.103531,622.449951 175.964401,638.248474 186.095825,653.727356 
	C201.088745,676.633484 219.664505,696.603271 240.733871,714.001221 
	C254.412949,725.296692 268.785522,735.849854 283.494873,745.776123 
	C302.936005,758.895386 324.181915,768.777710 346.274536,776.558960 
	C364.495300,782.976562 383.001495,788.637024 402.286041,791.097778 
	C415.421661,792.773865 428.565338,795.767578 441.709351,795.789307 
	C628.514648,796.098328 815.320679,795.999878 1002.126526,795.999939 
	C1003.703979,795.999939 1005.281433,795.999939 1006.747620,795.999939 
	C1006.747620,758.948792 1006.747620,722.676331 1006.747620,686.371033 
	C868.330261,697.863586 757.552002,648.180542 673.854248,537.004211 
	C673.139587,538.828552 672.651245,540.360352 671.959900,541.794250 
	C666.676086,552.753906 661.352722,563.694397 655.930298,575.381226 
M326.999603,250.500000 
	C326.999603,314.829712 326.907776,379.159668 327.088898,443.488892 
	C327.119537,454.364197 327.838348,465.292816 329.093506,476.097595 
	C331.478973,496.632172 339.368103,515.297424 350.945679,532.221497 
	C362.023895,548.415588 375.887360,561.950562 392.757965,572.289917 
	C413.603821,585.065552 436.207336,592.144470 460.584778,592.849609 
	C469.765747,593.115173 479.057495,592.132324 488.191193,590.913025 
	C507.128204,588.385071 524.513855,581.266418 540.456482,570.935486 
	C557.801514,559.695862 571.941772,545.200989 582.998962,527.602905 
	C596.239868,506.529236 603.728943,483.464111 603.799194,458.865082 
	C604.208984,315.374176 603.999634,171.881454 603.999390,28.389360 
	C603.999390,26.647560 603.999329,24.905758 603.999329,23.306353 
	C511.241852,23.306353 419.315155,23.306353 326.999603,23.306353 
	C326.999603,98.908615 326.999603,174.204300 326.999603,250.500000 
M824.503418,119.996475 
	C814.720825,127.446877 804.163391,134.088821 795.342285,142.542557 
	C783.002136,154.368942 771.263855,166.985580 760.513306,180.271744 
	C742.762024,202.209869 730.341492,227.324203 721.219177,253.929688 
	C713.495850,276.454956 709.062195,299.841919 708.241760,323.603790 
	C707.689392,339.600586 708.378723,355.795532 710.313965,371.682373 
	C712.580139,390.285217 717.312683,408.461578 723.844177,426.193604 
	C734.810425,455.965240 750.460205,482.967590 771.439819,506.577881 
	C782.256165,518.750610 794.532837,529.773193 807.021973,540.278381 
	C826.978394,557.064697 849.779602,569.404785 874.023132,578.814575 
	C900.294006,589.011292 927.734314,594.481262 955.842590,595.839294 
	C968.235718,596.438049 980.719604,595.501099 993.145203,594.904541 
	C997.766357,594.682678 1002.338562,593.441833 1006.758545,592.695190 
	C1006.758545,565.159851 1006.758545,538.219177 1006.758545,511.745209 
	C930.393860,524.643982 866.934204,502.612213 821.660461,439.449005 
	C780.800049,382.443024 778.088562,320.262238 807.108459,256.614258 
	C851.527771,178.553528 918.532959,147.867401 1006.681396,161.087418 
	C1006.681396,134.392822 1006.681396,107.306435 1006.681396,79.390938 
	C991.761963,78.584190 977.121521,77.432274 962.464233,77.145195 
	C954.609192,76.991356 946.726379,78.341850 938.853760,78.985031 
	C922.326233,80.335304 906.287109,84.031258 890.448425,88.813812 
	C867.138367,95.852402 845.392578,106.178734 824.503418,119.996475 
M848.937866,283.365448 
	C848.657166,283.778900 848.299927,284.159607 848.106628,284.610535 
	C838.518921,306.974243 835.871765,330.159729 838.821411,354.298553 
	C840.501587,368.049042 844.370667,381.051575 850.284607,393.325897 
	C859.176636,411.781097 871.863647,427.374115 888.304504,439.851532 
	C907.624634,454.514160 929.317993,463.729187 953.345520,465.725922 
	C971.275085,467.215942 989.487305,466.978973 1006.633972,460.265442 
	C1006.633972,439.893494 1006.633972,419.528625 1006.633972,398.515594 
	C989.836853,407.315674 973.042786,412.022644 954.272156,408.288269 
	C935.379944,404.529694 920.259766,395.240051 908.845215,380.180573 
	C892.836548,359.059875 886.672729,325.705353 905.800903,298.024017 
	C931.729614,260.501495 966.620789,255.255936 1006.995972,274.202515 
	C1006.995972,254.256882 1007.041138,234.786102 1006.879089,215.317047 
	C1006.869812,214.197403 1005.339294,212.346481 1004.233459,212.098404 
	C995.865601,210.221161 987.484436,207.786697 978.995422,207.228088 
	C969.148132,206.580109 959.008728,206.619827 949.321106,208.269287 
	C937.778503,210.234558 926.187073,213.237427 915.324158,217.565948 
	C898.053589,224.447754 883.590637,235.753128 870.898254,249.450943 
	C861.731018,259.344208 854.905823,270.602051 848.937866,283.365448 
M932.404419,359.928650 
	C932.878906,360.396301 933.455078,360.797089 933.813110,361.341370 
	C943.936096,376.731049 966.546448,381.621490 982.749146,375.235687 
	C1003.521301,367.048920 1013.363464,344.730042 1007.400391,325.024689 
	C1002.591064,309.131805 991.902100,299.209229 975.106812,295.852600 
	C955.027588,291.839661 935.697754,302.472870 928.323181,321.541016 
	C923.381470,334.318634 925.105408,347.254333 932.404419,359.928650 
M800.612854,23.002659 
	C762.530334,23.002659 724.447815,23.002659 686.474976,23.002659 
	C686.474976,55.334110 686.474976,87.108124 686.474976,119.978699 
	C692.222839,113.154488 696.886475,106.864754 702.319580,101.330307 
	C712.309875,91.153664 722.345093,80.949631 733.121216,71.635864 
	C744.058044,62.183197 755.578491,53.309513 767.466370,45.082520 
	C777.741699,37.971512 788.907410,32.150406 799.622620,25.664982 
	C800.450745,25.163715 800.827942,23.917412 800.612854,23.002659 
M737.418640,1004.932190 
	C727.889099,996.862732 718.350098,999.680969 708.537964,1005.490784 
	C707.418213,999.209656 702.783264,1001.467651 699.249451,1000.994385 
	C694.541626,1000.363831 692.808167,1002.190552 692.902649,1007.098938 
	C693.178589,1021.423889 692.999695,1035.757568 693.000244,1050.087891 
	C693.000610,1059.286011 693.000366,1059.139771 702.433105,1059.064087 
	C706.497986,1059.031494 708.124512,1057.547119 708.046204,1053.453735 
	C707.880554,1044.792114 707.455994,1036.074707 708.249756,1027.482910 
	C708.609863,1023.584900 710.858337,1019.208130 713.597290,1016.330933 
	C718.095520,1011.605835 724.990479,1013.548462 727.185852,1019.672668 
	C728.233521,1022.595459 728.803772,1025.812378 728.919312,1028.921021 
	C729.173035,1035.743530 728.965698,1042.582031 729.007874,1049.413696 
	C729.071350,1059.711182 727.736389,1058.872681 738.758728,1059.055908 
	C742.588684,1059.119507 744.164612,1057.873779 744.059631,1053.892334 
	C743.848877,1045.899658 743.963684,1037.897217 744.025513,1029.899414 
	C744.040833,1027.917114 744.119019,1025.875122 744.595581,1023.967407 
	C746.249023,1017.348877 750.955078,1013.535339 756.524170,1014.057251 
	C761.579102,1014.530945 764.460876,1017.971680 764.839233,1025.343628 
	C765.240051,1033.155518 764.987610,1041.001465 764.996765,1048.832520 
	C765.009521,1059.770508 765.303650,1059.977783 776.182617,1059.030640 
	C778.935547,1058.790894 780.010437,1057.634521 780.000000,1054.974487 
	C779.954224,1043.310669 780.391296,1031.627441 779.860962,1019.987305 
	C779.143250,1004.233826 766.543152,996.009277 752.109741,1001.663513 
	C748.204285,1003.193481 744.814575,1006.040039 740.752869,1008.551331 
	C740.130005,1007.863831 739.021301,1006.640198 737.418640,1004.932190 
M17.086361,933.157715 
	C19.514519,937.184143 21.082073,942.283813 24.525040,945.044678 
	C37.051285,955.089172 51.262398,955.228333 65.439842,949.056030 
	C72.507683,945.978943 78.385513,940.357727 78.791672,932.214111 
	C79.685905,914.284363 79.631073,896.307861 80.003365,878.351196 
	C80.061890,875.528259 79.101357,873.920898 76.005554,873.996765 
	C72.343910,874.086609 68.676620,874.087585 65.015060,873.995911 
	C61.932701,873.918762 60.943348,875.494019 60.989948,878.331238 
	C61.069248,883.159607 61.004700,887.990295 61.000786,892.820007 
	C60.991875,903.811707 61.175163,914.808044 60.910179,925.793579 
	C60.717068,933.799561 55.462196,938.157593 47.026176,937.990906 
	C38.837513,937.829224 35.019009,933.867310 35.008129,925.436096 
	C34.991795,912.778870 35.099388,900.121033 34.996662,887.464661 
	C34.872452,872.162109 37.272255,874.214233 20.887806,873.955811 
	C17.185516,873.897400 15.902300,875.325256 15.952777,878.957092 
	C16.098576,889.447205 15.882051,899.942505 16.041689,910.432251 
	C16.152779,917.731934 16.649691,925.025757 17.086361,933.157715 
M365.999481,1052.353516 
	C365.999268,1030.201172 366.034271,1008.048767 365.933472,985.896973 
	C365.925201,984.078613 365.196869,980.797119 364.455872,980.694153 
	C360.569122,980.153870 356.454224,979.899658 352.686493,980.743103 
	C351.650757,980.974915 351.166626,985.310852 351.073547,987.787842 
	C350.847565,993.802673 351.000031,999.831726 351.000031,1006.543335 
	C348.680756,1005.129761 347.441162,1004.306702 346.141632,1003.592773 
	C332.407532,996.046997 317.498901,1000.723633 310.129120,1014.618896 
	C306.917358,1020.674500 306.856049,1027.067017 307.007996,1033.577881 
	C307.270691,1044.835327 316.097778,1055.929321 326.924561,1059.021851 
	C335.643311,1061.512329 343.236816,1059.136475 350.802246,1053.410278 
	C350.427063,1058.778931 353.296936,1059.336548 356.867188,1059.015503 
	C358.023773,1058.911621 359.212524,1058.878174 360.360809,1059.020386 
	C364.770599,1059.566528 366.574982,1057.629883 365.999481,1052.353516 
M526.800659,951.989685 
	C533.497925,952.628479 539.667969,951.259949 545.875549,945.775879 
	C545.366882,951.571411 548.625793,950.952393 551.479736,950.996033 
	C552.477722,951.011292 553.491821,950.884399 554.471619,951.018982 
	C559.372864,951.692322 561.507629,949.909485 561.085876,944.690186 
	C560.685242,939.731506 561.000122,934.715088 560.999939,929.724060 
	C560.999268,912.255493 561.069153,894.786133 560.887329,877.319458 
	C560.869202,875.584229 559.680603,872.727661 558.415466,872.321289 
	C549.553162,869.475098 546.000427,872.216858 546.000061,881.330200 
	C545.999817,886.842773 546.000000,892.355347 546.000000,896.750793 
	C539.259521,895.120544 533.210388,892.322388 527.252808,892.505493 
	C516.201355,892.845337 508.382782,899.226318 504.235321,909.591309 
	C497.073822,927.488770 506.162628,949.186707 526.800659,951.989685 
M788.000000,1035.500000 
	C788.002930,1041.821655 787.927917,1048.145020 788.070923,1054.463501 
	C788.101562,1055.816284 788.516846,1057.673584 789.452454,1058.398926 
	C792.582886,1060.826294 802.077454,1058.461304 804.086670,1055.028320 
	C820.093201,1062.077148 831.166443,1060.745605 839.695129,1050.746582 
	C848.610535,1040.294189 849.837097,1022.994873 841.496826,1011.694031 
	C838.401001,1007.499329 833.597290,1003.946167 828.814819,1001.750610 
	C820.204102,997.797546 811.683655,1000.230042 804.065979,1005.251282 
	C803.546204,1004.533875 803.200134,1004.278442 803.195801,1004.017395 
	C803.107117,998.698425 803.027466,993.378967 803.006958,988.059387 
	C802.975769,979.971741 802.995483,979.971619 794.738281,980.000000 
	C794.571960,980.000610 794.402832,980.020142 794.239685,979.997559 
	C789.541687,979.348755 787.824280,981.194031 787.903015,986.091248 
	C788.162354,1002.223816 788.000305,1018.363220 788.000000,1035.500000 
M371.042603,924.226807 
	C371.418121,926.353516 371.723236,928.495544 372.180817,930.604492 
	C374.929199,943.270569 385.782562,952.374512 398.648804,951.826965 
	C404.032104,951.597778 409.334290,949.463562 414.725555,948.183105 
	C415.790833,953.108948 420.483185,950.436584 423.858215,950.978638 
	C428.665070,951.750671 430.136841,949.583923 430.091095,944.812561 
	C429.882111,923.017151 430.002502,901.218750 429.998260,879.421387 
	C429.996796,872.002686 429.988373,872.002686 422.594635,872.000061 
	C415.007599,871.997253 415.007202,871.997253 415.000275,879.731567 
	C414.998505,881.728271 415.000000,883.724976 415.000000,885.721680 
	C415.000000,889.567566 415.000000,893.413513 415.000000,896.237183 
	C407.822449,894.830566 401.410187,891.972046 395.446625,892.715027 
	C379.554291,894.694763 371.133789,906.087524 371.042603,924.226807 
M817.172729,947.952576 
	C818.696960,948.239746 820.377197,948.208130 821.720459,948.865173 
	C831.312805,953.557434 840.541870,953.753906 849.420349,947.152649 
	C858.921326,940.088623 861.414978,930.352539 861.103027,919.035217 
	C860.713989,904.916016 847.079834,888.789856 829.305603,893.108276 
	C825.356323,894.067749 821.655212,896.048950 817.303345,897.772156 
	C817.589233,893.110413 814.025940,894.048950 811.087341,894.012878 
	C802.001099,893.901428 802.000305,893.922852 802.000122,903.241577 
	C801.999756,922.551941 801.999817,941.862366 802.000000,961.172729 
	C802.000061,971.312561 801.999268,971.140564 812.000671,971.079468 
	C816.075195,971.054565 817.168823,969.376648 817.049316,965.659363 
	C816.867432,960.006042 817.031372,954.341736 817.172729,947.952576 
M630.583130,937.124146 
	C615.617798,933.240662 607.528198,919.347290 611.858032,904.964844 
	C616.169678,890.643127 630.711060,883.359741 645.327576,888.781616 
	C650.484741,890.694641 655.067505,894.156250 660.237427,897.095520 
	C662.921814,893.971863 665.821655,890.597595 668.861633,887.060242 
	C661.575073,875.393921 642.011353,868.774353 625.285583,873.509033 
	C604.783813,879.312805 595.716125,893.100220 595.351013,911.744629 
	C595.025024,928.391418 602.046082,943.373291 621.301880,950.450195 
	C638.769897,956.869934 659.440308,951.036804 669.453308,937.213928 
	C667.717407,935.393555 665.945068,933.470764 664.103638,931.616638 
	C659.397888,926.878601 659.427368,926.941467 654.177979,931.279907 
	C647.532532,936.772156 640.016541,939.170349 630.583130,937.124146 
M486.416229,1056.202881 
	C502.073761,1062.384033 517.645386,1062.858643 531.477539,1052.405762 
	C540.785767,1045.371582 541.557129,1047.289673 532.658569,1038.048828 
	C529.942078,1035.228027 528.199463,1035.272095 525.333496,1037.920898 
	C518.771667,1043.985596 510.984253,1046.453369 501.919312,1045.045776 
	C487.563385,1042.816528 479.894775,1032.384155 481.028748,1016.096802 
	C481.858978,1004.171936 492.411774,995.284485 505.363983,994.908569 
	C513.611145,994.669128 520.092712,998.071350 526.400452,1002.724487 
	C527.717468,1003.696167 530.512756,1004.139709 531.791931,1003.394165 
	C534.898315,1001.583618 537.513611,998.930481 540.580322,996.408264 
	C530.399414,984.818420 519.249084,979.668457 505.288239,979.921143 
	C486.684845,980.257812 471.075623,991.824951 466.429840,1009.270081 
	C461.759735,1026.806763 469.388641,1047.862183 486.416229,1056.202881 
M914.868225,1054.150391 
	C916.094421,1058.992065 919.631042,1059.557373 923.802063,1059.014404 
	C924.620789,1058.907837 925.465576,1058.954224 926.295715,1058.990234 
	C929.724487,1059.138916 931.020569,1057.392700 931.009888,1054.100586 
	C930.957520,1037.960693 931.018738,1021.820129 930.914917,1005.680664 
	C930.906372,1004.341553 930.353516,1002.519287 929.391663,1001.759827 
	C925.785217,998.912598 916.749939,1001.606262 915.097656,1005.890869 
	C913.226868,1004.842712 911.408936,1003.720886 909.504089,1002.774048 
	C899.577209,997.840271 888.337341,999.381348 880.432800,1007.151733 
	C872.481445,1014.968140 870.563232,1024.632446 871.870422,1035.518311 
	C873.920105,1052.586670 895.302917,1068.982666 914.868225,1054.150391 
M974.919861,894.196411 
	C958.015198,901.814209 955.087097,918.664978 959.613770,933.815979 
	C961.886047,941.421570 967.156311,947.165405 974.640991,950.211853 
	C983.944702,953.998657 992.823059,952.383789 1001.865295,945.893860 
	C1001.344177,951.532654 1004.604980,950.965698 1007.485107,950.994934 
	C1009.147949,951.011780 1010.816040,950.912292 1012.473328,951.008972 
	C1015.576904,951.189941 1017.037537,949.972473 1017.022095,946.692261 
	C1016.946045,930.560364 1017.012146,914.427856 1016.938293,898.295959 
	C1016.932739,897.071533 1016.598328,895.440918 1015.781189,894.702271 
	C1013.021484,892.207581 1002.911682,894.499146 1000.929138,898.182983 
	C993.214783,892.733948 984.891907,890.374756 974.919861,894.196411 
M459.052399,951.907715 
	C466.561066,952.638306 473.657349,951.603394 480.641876,945.582336 
	C480.429565,951.928955 484.149231,950.907715 487.247253,950.991699 
	C488.745544,951.032349 490.249023,950.928955 491.744995,950.999634 
	C494.644501,951.136536 496.019104,949.930359 496.008911,946.906250 
	C495.954010,930.578064 496.022736,914.249329 495.897217,897.921875 
	C495.887817,896.695496 495.002350,894.879333 493.997223,894.362976 
	C490.192383,892.408325 482.092743,894.578430 479.642090,897.961609 
	C478.388184,897.167603 477.173401,896.280945 475.857941,895.584229 
	C466.827362,890.801270 457.692017,891.067627 449.329468,896.601929 
	C437.548187,904.398682 435.129242,916.518127 437.346161,929.316833 
	C439.336761,940.808960 446.551331,948.653076 459.052399,951.907715 
M1171.523071,894.331055 
	C1170.723145,895.495544 1169.923218,896.659973 1169.119263,897.821655 
	C1151.988037,889.893555 1142.030151,891.052612 1132.450806,902.089539 
	C1124.227173,911.564453 1123.407471,929.528992 1130.706177,940.024719 
	C1134.316162,945.216064 1138.822998,949.359070 1144.997803,951.106262 
	C1153.630859,953.549072 1161.720459,951.889038 1169.184204,946.358704 
	C1170.857056,953.267578 1175.885010,950.396790 1179.567261,950.968933 
	C1183.655518,951.604187 1185.129517,949.743835 1185.068848,945.593628 
	C1184.876709,932.438721 1185.137817,919.277344 1184.961304,906.122009 
	C1184.782349,892.792786 1187.715820,893.842346 1171.523071,894.331055 
M922.922241,926.794434 
	C923.604309,925.275391 924.929443,923.730713 924.870117,922.241211 
	C924.199951,905.415833 913.551636,894.348999 899.269043,892.696228 
	C886.370483,891.203674 876.113953,895.369751 869.387390,906.221069 
	C862.836548,916.788696 862.797424,928.320923 869.432007,938.852295 
	C877.557739,951.750793 888.664062,953.699707 902.565491,951.339172 
	C907.683899,950.470093 912.662476,947.219849 917.062134,944.138123 
	C921.018616,941.366760 920.238525,939.372253 916.167847,936.980896 
	C911.617188,934.307373 907.457458,933.376709 902.906616,936.928711 
	C901.544556,937.991821 899.549072,938.403625 897.772888,938.748230 
	C889.646790,940.324890 881.165100,934.816345 880.772034,926.931702 
	C894.550781,926.931702 908.297363,926.931702 922.922241,926.794434 
M268.386383,927.000000 
	C271.176178,926.312744 276.044037,928.990723 275.855011,923.303467 
	C275.572021,914.789795 273.093872,906.745972 266.934113,900.596130 
	C257.195953,890.873535 239.569611,889.490662 228.727386,897.179993 
	C214.951141,906.950073 212.895157,922.164124 218.369293,935.363525 
	C225.418396,952.360657 245.056427,955.531372 260.039551,949.414368 
	C264.800995,947.470459 269.104584,944.693420 271.035095,939.467834 
	C262.150757,933.649414 262.131592,933.661804 252.982315,937.426147 
	C251.603333,937.993469 250.164215,938.500183 248.703979,938.770386 
	C240.385574,940.309448 232.388168,935.184998 231.654602,927.000000 
	C243.617859,927.000000 255.518082,927.000000 268.386383,927.000000 
M378.575958,1049.859131 
	C392.067017,1064.528809 416.651276,1063.325562 427.551239,1046.858765 
	C423.967560,1045.089722 420.596313,1042.756226 416.880341,1041.873291 
	C415.017822,1041.430786 412.576538,1043.765259 410.307159,1044.599121 
	C407.973358,1045.456665 405.571289,1046.302734 403.127258,1046.653320 
	C395.245087,1047.784546 388.024231,1042.180176 387.743317,1034.357056 
	C389.644867,1034.238892 391.566864,1034.022095 393.489563,1034.016235 
	C404.641937,1033.982178 415.796417,1033.880371 426.946014,1034.058960 
	C430.944519,1034.122803 432.421051,1032.564331 431.963409,1028.729248 
	C430.925049,1020.028137 427.947693,1012.404968 421.030365,1006.490906 
	C409.162842,996.344666 387.707886,998.394104 378.481079,1010.779236 
	C369.606689,1022.691223 369.498688,1036.126343 378.575958,1049.859131 
M1027.000000,939.473755 
	C1027.198120,951.910339 1025.167114,950.843079 1036.815308,951.056030 
	C1040.707642,951.127197 1042.126465,949.750488 1042.058716,945.836121 
	C1041.877319,935.342896 1041.994751,924.844421 1042.001465,914.348022 
	C1042.006348,906.610535 1042.286499,906.380554 1051.000000,907.431458 
	C1051.000000,909.115662 1051.000000,910.902222 1051.000000,912.688721 
	C1051.000000,922.352112 1050.999878,932.015442 1051.000122,941.678833 
	C1051.000488,951.176575 1051.001831,951.009521 1060.521729,951.076355 
	C1064.591187,951.104858 1066.135010,949.826111 1066.069824,945.630371 
	C1065.870728,932.804504 1065.999390,919.973572 1065.999878,907.144653 
	C1066.000244,894.006348 1065.999756,894.055969 1052.803345,893.985168 
	C1040.533691,893.919312 1042.088257,895.452942 1042.013428,882.960205 
	C1041.948853,872.193970 1042.005249,872.280945 1031.114502,872.958374 
	C1028.132568,873.143799 1026.930420,874.310791 1026.989990,877.229004 
	C1027.075195,881.392273 1026.955811,885.559387 1027.003052,889.723877 
	C1027.031372,892.214172 1026.383789,893.920654 1023.458435,894.027893 
	C1018.882690,894.195801 1020.019043,897.783875 1020.080933,900.356445 
	C1020.141418,902.870361 1018.632507,906.628174 1023.179565,906.905090 
	C1026.758545,907.123047 1027.028809,909.248901 1027.014160,911.992249 
	C1026.966919,920.822266 1026.998779,929.652710 1027.000000,939.473755 
M677.972168,1008.506714 
	C672.519104,1005.807495 667.328857,1002.058777 661.561462,1000.614990 
	C646.991150,996.967529 631.609131,1007.485107 627.559326,1022.925964 
	C623.787231,1037.308105 632.689514,1053.932251 646.510559,1058.315674 
	C660.158630,1062.644287 674.469482,1057.966187 681.806702,1046.777710 
	C689.680054,1034.771606 688.403076,1020.218018 677.972168,1008.506714 
M554.050659,1053.515015 
	C564.944702,1061.543945 577.960510,1061.962280 589.141968,1055.359741 
	C597.344543,1050.516235 605.179810,1035.155273 602.186584,1023.589233 
	C599.128601,1011.772949 589.434998,1002.160889 576.536133,1000.181091 
	C565.075012,998.421997 552.069763,1004.840027 546.506226,1015.000549 
	C539.511780,1027.774170 542.068237,1041.610596 554.050659,1053.515015 
M675.790588,935.518066 
	C682.414551,947.503235 692.502197,953.261719 706.207703,951.945007 
	C717.839600,950.827576 725.950500,944.518372 730.461426,933.845947 
	C735.800232,921.214722 732.211121,907.221191 721.902832,899.243591 
	C710.230835,890.210510 696.214478,889.959534 684.640991,898.576111 
	C673.516479,906.858521 670.267029,919.710815 675.790588,935.518066 
M764.618835,951.999329 
	C771.324585,952.507263 777.652405,951.022217 783.066895,947.164673 
	C794.830933,938.783630 799.075073,923.928650 794.218933,911.367737 
	C789.237976,898.484192 774.471069,890.569214 760.787109,892.868225 
	C746.339661,895.295410 735.220276,908.887634 736.026733,923.760742 
	C736.852051,938.981934 748.797913,951.169739 764.618835,951.999329 
M135.000000,925.506836 
	C134.993149,921.841431 135.124191,918.169678 134.954880,914.511841 
	C134.321472,900.828247 129.254700,893.762146 117.185112,892.607361 
	C111.648361,892.077576 105.791985,894.888489 100.999023,895.976074 
	C97.441124,895.252136 94.379639,894.197449 91.284248,894.086121 
	C84.024796,893.825134 84.006783,894.007874 84.002350,901.057129 
	C83.993858,914.552673 83.999458,928.048157 83.999809,941.543701 
	C84.000069,951.276428 83.999847,951.115356 93.887146,951.075500 
	C97.849167,951.059570 99.142792,949.602539 99.055687,945.764832 
	C98.866714,937.438599 98.647514,929.083008 99.166008,920.784729 
	C99.391533,917.175354 100.559807,912.924316 102.855049,910.352844 
	C104.920280,908.039124 109.199013,906.437378 112.343803,906.668335 
	C116.346764,906.962219 118.755272,910.594421 118.957848,914.910889 
	C119.362907,923.541931 119.821976,932.175659 119.958786,940.812988 
	C120.130287,951.639709 119.995468,951.537720 130.658310,951.050781 
	C133.901154,950.902710 135.075211,949.631714 135.024628,946.497375 
	C134.917099,939.834717 134.996948,933.169067 135.000000,925.506836 
M320.476074,936.215393 
	C318.880219,935.047302 317.284332,933.879150 315.136780,932.307312 
	C313.079224,934.722656 311.222534,937.220520 309.036743,939.386169 
	C306.408356,941.990479 307.181244,944.042542 309.590698,946.066956 
	C316.491394,951.865234 324.480682,953.212463 333.049957,951.402893 
	C340.171021,949.899109 345.077057,945.485901 346.747009,938.402710 
	C348.675354,930.223694 345.802704,924.004028 338.391205,919.308411 
	C334.463440,916.820007 330.140167,914.956482 326.208313,912.473694 
	C324.974976,911.694885 324.435242,909.817627 323.578064,908.443176 
	C325.270325,907.694214 327.009338,906.265625 328.642334,906.377930 
	C330.454803,906.502563 332.346222,907.807129 333.888489,909.003662 
	C336.400208,910.952332 338.321503,910.660706 340.262390,908.277771 
	C341.309509,906.992371 342.536835,905.835571 343.784241,904.735657 
	C345.850128,902.914001 346.228577,900.763794 343.788452,899.427612 
	C338.938019,896.771606 334.039520,893.497314 328.770599,892.458923 
	C317.919525,890.320618 308.419861,899.512878 309.019196,910.489990 
	C309.377136,917.046265 313.643616,920.983154 318.628235,924.235779 
	C322.104736,926.504211 326.046417,928.080994 329.423279,930.471130 
	C330.891083,931.509949 331.462372,933.815369 332.440826,935.545532 
	C330.179108,936.576477 327.995697,938.042542 325.625214,938.469360 
	C324.281342,938.711304 322.630707,937.249268 320.476074,936.215393 
M199.651947,895.955200 
	C195.490051,905.609741 191.328156,915.264221 186.690720,926.021851 
	C182.666626,916.637451 179.275177,908.531738 175.720398,900.498230 
	C172.664124,893.591248 165.570587,891.571899 158.065536,895.652832 
	C165.569382,913.130798 172.966766,930.708496 180.818604,948.080750 
	C181.557083,949.714600 185.154175,950.755737 187.431625,950.768921 
	C189.188477,950.779114 191.831314,949.154053 192.579529,947.554321 
	C197.644989,936.723877 202.354706,925.725525 207.090134,914.742981 
	C209.939865,908.133728 212.628510,901.455078 216.005096,893.325684 
	C209.701172,894.102966 204.897430,894.695251 199.651947,895.955200 
M1110.243896,929.777832 
	C1115.205322,918.272217 1120.166626,906.766663 1125.166260,895.172485 
	C1114.354004,891.957581 1110.858154,893.421936 1106.851440,902.315674 
	C1103.470215,909.821289 1100.182861,917.369141 1096.448364,925.815613 
	C1092.655151,916.961304 1089.187622,909.090271 1085.906372,901.142334 
	C1082.857788,893.758057 1075.696045,891.357361 1068.327759,895.563843 
	C1068.531128,896.308533 1068.656738,897.133606 1068.974121,897.876953 
	C1075.959595,914.243408 1083.036011,930.571655 1089.907837,946.985474 
	C1091.218018,950.114929 1093.075806,951.092224 1096.346558,951.096130 
	C1099.867065,951.100281 1101.931274,949.796814 1103.213379,946.588562 
	C1105.373047,941.184692 1107.727417,935.858704 1110.243896,929.777832 
M611.720642,1058.994995 
	C612.386230,1058.996704 613.051758,1058.999878 613.717346,1058.999878 
	C621.995361,1058.999390 621.998535,1058.999268 621.999329,1050.959595 
	C622.001221,1030.660156 622.000061,1010.360657 622.000000,990.061157 
	C621.999939,979.287598 622.004150,979.364929 611.242065,979.961853 
	C608.364624,980.121521 606.985840,981.077148 606.991638,984.093201 
	C607.036987,1007.720276 607.029419,1031.347534 607.000549,1054.974731 
	C606.997314,1057.625977 608.020081,1059.084839 611.720642,1058.994995 
M947.328735,906.597290 
	C952.841492,906.940613 956.184875,904.540283 957.027405,898.951111 
	C957.075378,898.632568 957.286682,898.340820 957.405823,898.030273 
	C958.540161,895.073547 957.688660,892.526184 954.464233,892.803467 
	C950.116943,893.177307 945.865723,894.669373 940.974609,895.822815 
	C939.721130,894.347656 932.205627,892.296204 929.294739,894.439148 
	C927.639893,895.657349 927.133911,899.205261 927.094543,901.719543 
	C926.888794,914.860718 926.997375,928.006897 926.998413,941.151306 
	C926.999146,951.409119 926.997498,951.261963 937.234924,951.070740 
	C941.034607,950.999695 942.138733,949.446411 942.041931,945.930359 
	C941.877075,939.945129 941.398071,933.874207 942.157959,927.982056 
	C943.068604,920.920349 941.245850,913.136963 947.328735,906.597290 
M281.807648,950.979187 
	C283.639191,950.985718 285.488190,950.832520 287.298767,951.030518 
	C291.637878,951.505066 293.393188,949.768250 293.058624,945.353210 
	C292.770142,941.545410 292.868134,937.692810 293.028839,933.869934 
	C293.314636,927.072388 293.587738,920.263977 294.245575,913.496887 
	C294.573669,910.121704 296.072021,905.923035 299.872986,906.379639 
	C305.445496,907.049133 306.439758,903.807678 307.413971,900.056763 
	C307.920563,898.106201 308.444977,894.469543 307.855469,894.221313 
	C305.460968,893.213318 302.426941,892.424133 300.026489,893.058716 
	C297.013428,893.855408 294.390137,896.126160 291.594269,897.750366 
	C289.699097,891.413635 284.522888,894.274292 280.739380,894.257324 
	C276.990082,894.240417 278.057007,897.833374 278.044464,900.104065 
	C277.960602,915.255798 277.904938,930.409668 278.130188,945.558533 
	C278.156952,947.360962 279.938263,949.137329 281.807648,950.979187 
M854.884949,1001.075867 
	C853.929565,1002.368103 852.157410,1003.651001 852.142578,1004.953857 
	C851.953430,1021.578674 852.043091,1038.206543 851.989868,1054.833252 
	C851.980408,1057.786377 853.208923,1059.140381 856.165771,1058.998657 
	C857.658569,1058.927124 859.171326,1058.867065 860.651917,1059.022339 
	C865.369019,1059.516968 867.161560,1057.588257 867.078735,1052.756226 
	C866.847900,1039.292236 867.026123,1025.821533 866.992065,1012.353760 
	C866.961487,1000.241760 868.278870,1000.938232 854.884949,1001.075867 
M141.000000,911.501587 
	C141.000061,922.470032 140.989212,933.438477 141.004303,944.406921 
	C141.013336,950.975952 141.031570,950.975952 147.721298,950.999695 
	C147.887482,951.000244 148.053680,950.999756 148.219864,950.999939 
	C155.989655,951.008545 155.995712,951.008545 155.998505,943.470398 
	C156.003357,930.341492 156.000137,917.212646 155.999954,904.083740 
	C155.999802,893.322205 156.004715,893.428528 145.287460,893.948608 
	C142.018402,894.107300 140.887863,895.448853 140.979202,898.537903 
	C141.097031,902.522888 141.002869,906.514038 141.000000,911.501587 
M360.360657,950.998840 
	C364.744843,951.587646 366.144470,949.646362 366.077759,945.312134 
	C365.865295,931.514771 365.999878,917.711975 365.999969,903.911316 
	C366.000031,893.514954 365.999725,893.515137 355.607056,894.006042 
	C355.274994,894.021729 354.808350,893.884827 354.631470,894.054993 
	C353.396271,895.243530 351.198914,896.479675 351.181122,897.727295 
	C350.946686,914.184875 351.037079,930.646851 351.004395,947.107727 
	C350.998962,949.836609 352.239777,951.076294 354.941528,950.990540 
	C356.436249,950.943054 357.934052,950.993469 360.360657,950.998840 
M865.934204,994.506775 
	C869.329590,990.880493 869.803650,986.841003 867.017639,982.789307 
	C864.737610,979.473450 861.236816,976.975830 857.316772,978.669800 
	C854.506714,979.884094 851.639038,982.656189 850.421265,985.442993 
	C848.837524,989.067200 850.126282,993.003418 853.794983,995.415588 
	C857.687256,997.974976 861.583618,997.551208 865.934204,994.506775 
M148.627365,889.824097 
	C149.600723,889.646118 150.614166,889.585815 151.540665,889.270264 
	C156.266800,887.660400 158.482208,884.003784 157.963760,878.803467 
	C157.562469,874.778320 154.192947,871.423279 150.161835,871.035095 
	C144.831482,870.521790 141.596649,872.628357 139.948578,877.686157 
	C138.175400,883.127808 140.959457,887.356018 148.627365,889.824097 
M1067.545410,877.369446 
	C1066.850708,876.247986 1066.290527,875.010132 1065.437622,874.025879 
	C1062.157715,870.240967 1056.374268,869.870361 1052.508057,873.102051 
	C1048.583008,876.382812 1048.109863,881.979736 1051.563354,885.977051 
	C1054.214722,889.046021 1057.257812,890.988037 1061.619385,889.188721 
	C1066.688843,887.097351 1068.721680,883.491638 1067.545410,877.369446 
M359.384796,889.823303 
	C360.341797,889.567322 361.341309,889.414001 362.248688,889.038086 
	C367.076782,887.038635 369.249756,881.980957 367.624878,876.651733 
	C366.310120,872.339661 362.109436,870.202576 356.768280,871.128540 
	C352.069916,871.943054 349.607483,875.557617 350.037018,881.090759 
	C350.448364,886.389526 353.652466,888.982544 359.384796,889.823303 
z"/>
<path fill="#55B7C9" opacity="1.000000" stroke="none" 
	d="
M655.985962,575.011047 
	C661.352722,563.694397 666.676086,552.753906 671.959900,541.794250 
	C672.651245,540.360352 673.139587,538.828552 673.854248,537.004211 
	C757.552002,648.180542 868.330261,697.863586 1006.747620,686.371033 
	C1006.747620,722.676331 1006.747620,758.948792 1006.747620,795.999939 
	C1005.281433,795.999939 1003.703979,795.999939 1002.126526,795.999939 
	C815.320679,795.999878 628.514648,796.098328 441.709351,795.789307 
	C428.565338,795.767578 415.421661,792.773865 402.286041,791.097778 
	C383.001495,788.637024 364.495300,782.976562 346.274536,776.558960 
	C324.181915,768.777710 302.936005,758.895386 283.494873,745.776123 
	C268.785522,735.849854 254.412949,725.296692 240.733871,714.001221 
	C219.664505,696.603271 201.088745,676.633484 186.095825,653.727356 
	C175.964401,638.248474 166.103531,622.449951 157.801788,605.949097 
	C144.867294,580.240051 135.599838,553.057617 131.047409,524.504272 
	C128.992264,511.614288 127.326828,498.640350 126.108055,485.645996 
	C125.213165,476.104675 125.047050,466.468353 125.042870,456.874146 
	C124.980782,314.395142 125.000000,171.916122 125.000000,29.437096 
	C125.000000,27.472214 125.000000,25.507332 125.000000,23.273567 
	C165.097000,23.273567 204.816742,23.273567 245.000000,23.273567 
	C245.000000,25.407694 244.999985,27.361799 244.999985,29.315905 
	C245.000061,177.460770 244.808701,325.606140 245.202896,473.749939 
	C245.263290,496.440979 250.258987,518.608887 258.474731,539.997925 
	C264.923950,556.787964 272.874084,572.674438 282.867523,587.614197 
	C292.715363,602.336304 304.049683,615.830688 317.223206,627.563782 
	C341.580872,649.258118 369.127472,665.649902 400.515381,675.188843 
	C415.508118,679.745239 430.687683,683.342468 446.422363,683.986328 
	C456.339264,684.392090 466.286469,685.279236 476.176392,684.876892 
	C499.114960,683.943604 521.382141,679.250732 542.847351,671.015686 
	C563.612793,663.049194 582.930542,652.371033 600.478333,638.745728 
	C617.481812,625.543030 632.384033,610.175171 644.770447,592.498596 
	C648.677002,586.923584 652.220581,581.094177 655.985962,575.011047 
z"/>
<path fill="#7FC52D" opacity="1.000000" stroke="none" 
	d="
M326.999603,250.000000 
	C326.999603,174.204300 326.999603,98.908615 326.999603,23.306353 
	C419.315155,23.306353 511.241852,23.306353 603.999329,23.306353 
	C603.999329,24.905758 603.999390,26.647560 603.999390,28.389360 
	C603.999634,171.881454 604.208984,315.374176 603.799194,458.865082 
	C603.728943,483.464111 596.239868,506.529236 582.998962,527.602905 
	C571.941772,545.200989 557.801514,559.695862 540.456482,570.935486 
	C524.513855,581.266418 507.128204,588.385071 488.191193,590.913025 
	C479.057495,592.132324 469.765747,593.115173 460.584778,592.849609 
	C436.207336,592.144470 413.603821,585.065552 392.757965,572.289917 
	C375.887360,561.950562 362.023895,548.415588 350.945679,532.221497 
	C339.368103,515.297424 331.478973,496.632172 329.093506,476.097595 
	C327.838348,465.292816 327.119537,454.364197 327.088898,443.488892 
	C326.907776,379.159668 326.999603,314.829712 326.999603,250.000000 
z"/>
<path fill="#7FC52D" opacity="1.000000" stroke="none" 
	d="
M824.769226,119.742874 
	C845.392578,106.178734 867.138367,95.852402 890.448425,88.813812 
	C906.287109,84.031258 922.326233,80.335304 938.853760,78.985031 
	C946.726379,78.341850 954.609192,76.991356 962.464233,77.145195 
	C977.121521,77.432274 991.761963,78.584190 1006.681396,79.390938 
	C1006.681396,107.306435 1006.681396,134.392822 1006.681396,161.087418 
	C918.532959,147.867401 851.527771,178.553528 807.108459,256.614258 
	C778.088562,320.262238 780.800049,382.443024 821.660461,439.449005 
	C866.934204,502.612213 930.393860,524.643982 1006.758545,511.745209 
	C1006.758545,538.219177 1006.758545,565.159851 1006.758545,592.695190 
	C1002.338562,593.441833 997.766357,594.682678 993.145203,594.904541 
	C980.719604,595.501099 968.235718,596.438049 955.842590,595.839294 
	C927.734314,594.481262 900.294006,589.011292 874.023132,578.814575 
	C849.779602,569.404785 826.978394,557.064697 807.021973,540.278381 
	C794.532837,529.773193 782.256165,518.750610 771.439819,506.577881 
	C750.460205,482.967590 734.810425,455.965240 723.844177,426.193604 
	C717.312683,408.461578 712.580139,390.285217 710.313965,371.682373 
	C708.378723,355.795532 707.689392,339.600586 708.241760,323.603790 
	C709.062195,299.841919 713.495850,276.454956 721.219177,253.929688 
	C730.341492,227.324203 742.762024,202.209869 760.513306,180.271744 
	C771.263855,166.985580 783.002136,154.368942 795.342285,142.542557 
	C804.163391,134.088821 814.720825,127.446877 824.769226,119.742874 
z"/>
<path fill="#C7DC2B" opacity="1.000000" stroke="none" 
	d="
M849.001831,282.980652 
	C854.905823,270.602051 861.731018,259.344208 870.898254,249.450943 
	C883.590637,235.753128 898.053589,224.447754 915.324158,217.565948 
	C926.187073,213.237427 937.778503,210.234558 949.321106,208.269287 
	C959.008728,206.619827 969.148132,206.580109 978.995422,207.228088 
	C987.484436,207.786697 995.865601,210.221161 1004.233459,212.098404 
	C1005.339294,212.346481 1006.869812,214.197403 1006.879089,215.317047 
	C1007.041138,234.786102 1006.995972,254.256882 1006.995972,274.202515 
	C966.620789,255.255936 931.729614,260.501495 905.800903,298.024017 
	C886.672729,325.705353 892.836548,359.059875 908.845215,380.180573 
	C920.259766,395.240051 935.379944,404.529694 954.272156,408.288269 
	C973.042786,412.022644 989.836853,407.315674 1006.633972,398.515594 
	C1006.633972,419.528625 1006.633972,439.893494 1006.633972,460.265442 
	C989.487305,466.978973 971.275085,467.215942 953.345520,465.725922 
	C929.317993,463.729187 907.624634,454.514160 888.304504,439.851532 
	C871.863647,427.374115 859.176636,411.781097 850.284607,393.325897 
	C844.370667,381.051575 840.501587,368.049042 838.821411,354.298553 
	C835.871765,330.159729 838.518921,306.974243 848.106628,284.610535 
	C848.299927,284.159607 848.657166,283.778900 849.001831,282.980652 
z"/>
<path fill="#55B7C9" opacity="1.000000" stroke="none" 
	d="
M932.217529,359.603119 
	C925.105408,347.254333 923.381470,334.318634 928.323181,321.541016 
	C935.697754,302.472870 955.027588,291.839661 975.106812,295.852600 
	C991.902100,299.209229 1002.591064,309.131805 1007.400391,325.024689 
	C1013.363464,344.730042 1003.521301,367.048920 982.749146,375.235687 
	C966.546448,381.621490 943.936096,376.731049 933.813110,361.341370 
	C933.455078,360.797089 932.878906,360.396301 932.217529,359.603119 
z"/>
<path fill="#55B7C9" opacity="1.000000" stroke="none" 
	d="
M801.013794,23.010029 
	C800.827942,23.917412 800.450745,25.163715 799.622620,25.664982 
	C788.907410,32.150406 777.741699,37.971512 767.466370,45.082520 
	C755.578491,53.309513 744.058044,62.183197 733.121216,71.635864 
	C722.345093,80.949631 712.309875,91.153664 702.319580,101.330307 
	C696.886475,106.864754 692.222839,113.154488 686.474976,119.978699 
	C686.474976,87.108124 686.474976,55.334110 686.474976,23.002659 
	C724.447815,23.002659 762.530334,23.002659 801.013794,23.010029 
z"/>
<path fill="#100F0D" opacity="1.000000" stroke="none" 
	d="
M737.665649,1005.174377 
	C739.021301,1006.640198 740.130005,1007.863831 740.752869,1008.551331 
	C744.814575,1006.040039 748.204285,1003.193481 752.109741,1001.663513 
	C766.543152,996.009277 779.143250,1004.233826 779.860962,1019.987305 
	C780.391296,1031.627441 779.954224,1043.310669 780.000000,1054.974487 
	C780.010437,1057.634521 778.935547,1058.790894 776.182617,1059.030640 
	C765.303650,1059.977783 765.009521,1059.770508 764.996765,1048.832520 
	C764.987610,1041.001465 765.240051,1033.155518 764.839233,1025.343628 
	C764.460876,1017.971680 761.579102,1014.530945 756.524170,1014.057251 
	C750.955078,1013.535339 746.249023,1017.348877 744.595581,1023.967407 
	C744.119019,1025.875122 744.040833,1027.917114 744.025513,1029.899414 
	C743.963684,1037.897217 743.848877,1045.899658 744.059631,1053.892334 
	C744.164612,1057.873779 742.588684,1059.119507 738.758728,1059.055908 
	C727.736389,1058.872681 729.071350,1059.711182 729.007874,1049.413696 
	C728.965698,1042.582031 729.173035,1035.743530 728.919312,1028.921021 
	C728.803772,1025.812378 728.233521,1022.595459 727.185852,1019.672668 
	C724.990479,1013.548462 718.095520,1011.605835 713.597290,1016.330933 
	C710.858337,1019.208130 708.609863,1023.584900 708.249756,1027.482910 
	C707.455994,1036.074707 707.880554,1044.792114 708.046204,1053.453735 
	C708.124512,1057.547119 706.497986,1059.031494 702.433105,1059.064087 
	C693.000366,1059.139771 693.000610,1059.286011 693.000244,1050.087891 
	C692.999695,1035.757568 693.178589,1021.423889 692.902649,1007.098938 
	C692.808167,1002.190552 694.541626,1000.363831 699.249451,1000.994385 
	C702.783264,1001.467651 707.418213,999.209656 708.537964,1005.490784 
	C718.350098,999.680969 727.889099,996.862732 737.665649,1005.174377 
z"/>
<path fill="#100F0D" opacity="1.000000" stroke="none" 
	d="
M17.030302,932.739990 
	C16.649691,925.025757 16.152779,917.731934 16.041689,910.432251 
	C15.882051,899.942505 16.098576,889.447205 15.952777,878.957092 
	C15.902300,875.325256 17.185516,873.897400 20.887806,873.955811 
	C37.272255,874.214233 34.872452,872.162109 34.996662,887.464661 
	C35.099388,900.121033 34.991795,912.778870 35.008129,925.436096 
	C35.019009,933.867310 38.837513,937.829224 47.026176,937.990906 
	C55.462196,938.157593 60.717068,933.799561 60.910179,925.793579 
	C61.175163,914.808044 60.991875,903.811707 61.000786,892.820007 
	C61.004700,887.990295 61.069248,883.159607 60.989948,878.331238 
	C60.943348,875.494019 61.932701,873.918762 65.015060,873.995911 
	C68.676620,874.087585 72.343910,874.086609 76.005554,873.996765 
	C79.101357,873.920898 80.061890,875.528259 80.003365,878.351196 
	C79.631073,896.307861 79.685905,914.284363 78.791672,932.214111 
	C78.385513,940.357727 72.507683,945.978943 65.439842,949.056030 
	C51.262398,955.228333 37.051285,955.089172 24.525040,945.044678 
	C21.082073,942.283813 19.514519,937.184143 17.030302,932.739990 
z"/>
<path fill="#100F0D" opacity="1.000000" stroke="none" 
	d="
M365.999023,1052.828125 
	C366.574982,1057.629883 364.770599,1059.566528 360.360809,1059.020386 
	C359.212524,1058.878174 358.023773,1058.911621 356.867188,1059.015503 
	C353.296936,1059.336548 350.427063,1058.778931 350.802246,1053.410278 
	C343.236816,1059.136475 335.643311,1061.512329 326.924561,1059.021851 
	C316.097778,1055.929321 307.270691,1044.835327 307.007996,1033.577881 
	C306.856049,1027.067017 306.917358,1020.674500 310.129120,1014.618896 
	C317.498901,1000.723633 332.407532,996.046997 346.141632,1003.592773 
	C347.441162,1004.306702 348.680756,1005.129761 351.000031,1006.543335 
	C351.000031,999.831726 350.847565,993.802673 351.073547,987.787842 
	C351.166626,985.310852 351.650757,980.974915 352.686493,980.743103 
	C356.454224,979.899658 360.569122,980.153870 364.455872,980.694153 
	C365.196869,980.797119 365.925201,984.078613 365.933472,985.896973 
	C366.034271,1008.048767 365.999268,1030.201172 365.999023,1052.828125 
M347.006317,1018.521851 
	C343.950378,1017.022766 341.003235,1014.562988 337.818359,1014.202271 
	C327.749634,1013.062256 321.485565,1020.503723 322.017426,1032.215820 
	C322.305939,1038.569092 325.755402,1042.844482 331.442017,1045.094360 
	C336.820831,1047.222412 341.919037,1046.161621 346.247589,1042.211426 
	C352.460999,1036.540894 352.963806,1026.949829 347.006317,1018.521851 
z"/>
<path fill="#100F0D" opacity="1.000000" stroke="none" 
	d="
M526.356934,951.977539 
	C506.162628,949.186707 497.073822,927.488770 504.235321,909.591309 
	C508.382782,899.226318 516.201355,892.845337 527.252808,892.505493 
	C533.210388,892.322388 539.259521,895.120544 546.000000,896.750793 
	C546.000000,892.355347 545.999817,886.842773 546.000061,881.330200 
	C546.000427,872.216858 549.553162,869.475098 558.415466,872.321289 
	C559.680603,872.727661 560.869202,875.584229 560.887329,877.319458 
	C561.069153,894.786133 560.999268,912.255493 560.999939,929.724060 
	C561.000122,934.715088 560.685242,939.731506 561.085876,944.690186 
	C561.507629,949.909485 559.372864,951.692322 554.471619,951.018982 
	C553.491821,950.884399 552.477722,951.011292 551.479736,950.996033 
	C548.625793,950.952393 545.366882,951.571411 545.875549,945.775879 
	C539.667969,951.259949 533.497925,952.628479 526.356934,951.977539 
M522.618652,935.008362 
	C533.944641,941.828308 544.746765,937.124817 546.596130,924.242737 
	C547.465759,918.185181 545.542664,912.702209 540.292236,908.953308 
	C535.730164,905.696045 530.906982,905.331116 525.703674,907.652893 
	C515.747314,912.095581 513.825134,925.805115 522.618652,935.008362 
z"/>
<path fill="#100F0D" opacity="1.000000" stroke="none" 
	d="
M788.000000,1035.000000 
	C788.000305,1018.363220 788.162354,1002.223816 787.903015,986.091248 
	C787.824280,981.194031 789.541687,979.348755 794.239685,979.997559 
	C794.402832,980.020142 794.571960,980.000610 794.738281,980.000000 
	C802.995483,979.971619 802.975769,979.971741 803.006958,988.059387 
	C803.027466,993.378967 803.107117,998.698425 803.195801,1004.017395 
	C803.200134,1004.278442 803.546204,1004.533875 804.065979,1005.251282 
	C811.683655,1000.230042 820.204102,997.797546 828.814819,1001.750610 
	C833.597290,1003.946167 838.401001,1007.499329 841.496826,1011.694031 
	C849.837097,1022.994873 848.610535,1040.294189 839.695129,1050.746582 
	C831.166443,1060.745605 820.093201,1062.077148 804.086670,1055.028320 
	C802.077454,1058.461304 792.582886,1060.826294 789.452454,1058.398926 
	C788.516846,1057.673584 788.101562,1055.816284 788.070923,1054.463501 
	C787.927917,1048.145020 788.002930,1041.821655 788.000000,1035.000000 
M822.339783,1014.731140 
	C820.046692,1014.507996 817.724487,1013.934998 815.465759,1014.123474 
	C806.682068,1014.856567 800.461914,1023.846069 802.244568,1032.947388 
	C804.083313,1042.334717 812.300720,1047.860107 820.905701,1045.495239 
	C826.581177,1043.935425 831.075867,1038.429077 831.900391,1032.025757 
	C832.765808,1025.305054 829.213501,1018.481262 822.339783,1014.731140 
z"/>
<path fill="#100F0D" opacity="1.000000" stroke="none" 
	d="
M371.028015,923.780701 
	C371.133789,906.087524 379.554291,894.694763 395.446625,892.715027 
	C401.410187,891.972046 407.822449,894.830566 415.000000,896.237183 
	C415.000000,893.413513 415.000000,889.567566 415.000000,885.721680 
	C415.000000,883.724976 414.998505,881.728271 415.000275,879.731567 
	C415.007202,871.997253 415.007599,871.997253 422.594635,872.000061 
	C429.988373,872.002686 429.996796,872.002686 429.998260,879.421387 
	C430.002502,901.218750 429.882111,923.017151 430.091095,944.812561 
	C430.136841,949.583923 428.665070,951.750671 423.858215,950.978638 
	C420.483185,950.436584 415.790833,953.108948 414.725555,948.183105 
	C409.334290,949.463562 404.032104,951.597778 398.648804,951.826965 
	C385.782562,952.374512 374.929199,943.270569 372.180817,930.604492 
	C371.723236,928.495544 371.418121,926.353516 371.028015,923.780701 
M408.141602,908.131409 
	C407.383942,907.797058 406.645844,907.405945 405.865601,907.137146 
	C399.098114,904.805359 392.040466,907.421387 388.280945,913.632874 
	C384.639893,919.648621 385.920837,929.594604 390.956299,934.405334 
	C395.526031,938.771179 403.896118,939.349182 409.442566,935.682007 
	C418.518036,929.681519 418.183167,915.734497 408.141602,908.131409 
z"/>
<path fill="#100F0D" opacity="1.000000" stroke="none" 
	d="
M817.110596,948.317322 
	C817.031372,954.341736 816.867432,960.006042 817.049316,965.659363 
	C817.168823,969.376648 816.075195,971.054565 812.000671,971.079468 
	C801.999268,971.140564 802.000061,971.312561 802.000000,961.172729 
	C801.999817,941.862366 801.999756,922.551941 802.000122,903.241577 
	C802.000305,893.922852 802.001099,893.901428 811.087341,894.012878 
	C814.025940,894.048950 817.589233,893.110413 817.303345,897.772156 
	C821.655212,896.048950 825.356323,894.067749 829.305603,893.108276 
	C847.079834,888.789856 860.713989,904.916016 861.103027,919.035217 
	C861.414978,930.352539 858.921326,940.088623 849.420349,947.152649 
	C840.541870,953.753906 831.312805,953.557434 821.720459,948.865173 
	C820.377197,948.208130 818.696960,948.239746 817.110596,948.317322 
M845.998840,922.475830 
	C845.730957,912.421143 839.722046,905.750183 831.123230,906.043823 
	C824.152161,906.281860 816.220093,911.666565 816.914856,923.033203 
	C817.462769,931.996521 822.211731,937.776794 830.242493,937.994385 
	C839.596252,938.247864 845.428345,932.826172 845.998840,922.475830 
z"/>
<path fill="#100F0D" opacity="1.000000" stroke="none" 
	d="
M630.991272,937.222473 
	C640.016541,939.170349 647.532532,936.772156 654.177979,931.279907 
	C659.427368,926.941467 659.397888,926.878601 664.103638,931.616638 
	C665.945068,933.470764 667.717407,935.393555 669.453308,937.213928 
	C659.440308,951.036804 638.769897,956.869934 621.301880,950.450195 
	C602.046082,943.373291 595.025024,928.391418 595.351013,911.744629 
	C595.716125,893.100220 604.783813,879.312805 625.285583,873.509033 
	C642.011353,868.774353 661.575073,875.393921 668.861633,887.060242 
	C665.821655,890.597595 662.921814,893.971863 660.237427,897.095520 
	C655.067505,894.156250 650.484741,890.694641 645.327576,888.781616 
	C630.711060,883.359741 616.169678,890.643127 611.858032,904.964844 
	C607.528198,919.347290 615.617798,933.240662 630.991272,937.222473 
z"/>
<path fill="#100F0D" opacity="1.000000" stroke="none" 
	d="
M486.079834,1056.037109 
	C469.388641,1047.862183 461.759735,1026.806763 466.429840,1009.270081 
	C471.075623,991.824951 486.684845,980.257812 505.288239,979.921143 
	C519.249084,979.668457 530.399414,984.818420 540.580322,996.408264 
	C537.513611,998.930481 534.898315,1001.583618 531.791931,1003.394165 
	C530.512756,1004.139709 527.717468,1003.696167 526.400452,1002.724487 
	C520.092712,998.071350 513.611145,994.669128 505.363983,994.908569 
	C492.411774,995.284485 481.858978,1004.171936 481.028748,1016.096802 
	C479.894775,1032.384155 487.563385,1042.816528 501.919312,1045.045776 
	C510.984253,1046.453369 518.771667,1043.985596 525.333496,1037.920898 
	C528.199463,1035.272095 529.942078,1035.228027 532.658569,1038.048828 
	C541.557129,1047.289673 540.785767,1045.371582 531.477539,1052.405762 
	C517.645386,1062.858643 502.073761,1062.384033 486.079834,1056.037109 
z"/>
<path fill="#100F0D" opacity="1.000000" stroke="none" 
	d="
M914.578003,1054.259033 
	C895.302917,1068.982666 873.920105,1052.586670 871.870422,1035.518311 
	C870.563232,1024.632446 872.481445,1014.968140 880.432800,1007.151733 
	C888.337341,999.381348 899.577209,997.840271 909.504089,1002.774048 
	C911.408936,1003.720886 913.226868,1004.842712 915.097656,1005.890869 
	C916.749939,1001.606262 925.785217,998.912598 929.391663,1001.759827 
	C930.353516,1002.519287 930.906372,1004.341553 930.914917,1005.680664 
	C931.018738,1021.820129 930.957520,1037.960693 931.009888,1054.100586 
	C931.020569,1057.392700 929.724487,1059.138916 926.295715,1058.990234 
	C925.465576,1058.954224 924.620789,1058.907837 923.802063,1059.014404 
	C919.631042,1059.557373 916.094421,1058.992065 914.578003,1054.259033 
M889.952881,1019.562439 
	C884.068604,1027.269165 886.034485,1039.087402 894.010742,1043.956055 
	C900.351685,1047.826538 908.630676,1046.210938 913.125122,1040.225952 
	C917.861877,1033.918213 916.741272,1022.499512 910.888672,1017.435730 
	C904.819519,1012.184631 896.798035,1012.811890 889.952881,1019.562439 
z"/>
<path fill="#100F0D" opacity="1.000000" stroke="none" 
	d="
M975.293091,894.074829 
	C984.891907,890.374756 993.214783,892.733948 1000.929138,898.182983 
	C1002.911682,894.499146 1013.021484,892.207581 1015.781189,894.702271 
	C1016.598328,895.440918 1016.932739,897.071533 1016.938293,898.295959 
	C1017.012146,914.427856 1016.946045,930.560364 1017.022095,946.692261 
	C1017.037537,949.972473 1015.576904,951.189941 1012.473328,951.008972 
	C1010.816040,950.912292 1009.147949,951.011780 1007.485107,950.994934 
	C1004.604980,950.965698 1001.344177,951.532654 1001.865295,945.893860 
	C992.823059,952.383789 983.944702,953.998657 974.640991,950.211853 
	C967.156311,947.165405 961.886047,941.421570 959.613770,933.815979 
	C955.087097,918.664978 958.015198,901.814209 975.293091,894.074829 
M979.710144,936.077271 
	C988.324951,940.667786 997.686279,937.543396 1001.021301,928.630371 
	C1001.972412,926.088379 1001.961731,923.088379 1001.944580,920.301208 
	C1001.900330,913.090027 997.538635,908.204895 989.964172,906.509766 
	C983.760376,905.121399 977.612366,908.085571 974.542908,913.944763 
	C970.899780,920.899048 972.661133,929.201050 979.710144,936.077271 
z"/>
<path fill="#100F0D" opacity="1.000000" stroke="none" 
	d="
M458.626831,951.845154 
	C446.551331,948.653076 439.336761,940.808960 437.346161,929.316833 
	C435.129242,916.518127 437.548187,904.398682 449.329468,896.601929 
	C457.692017,891.067627 466.827362,890.801270 475.857941,895.584229 
	C477.173401,896.280945 478.388184,897.167603 479.642090,897.961609 
	C482.092743,894.578430 490.192383,892.408325 493.997223,894.362976 
	C495.002350,894.879333 495.887817,896.695496 495.897217,897.921875 
	C496.022736,914.249329 495.954010,930.578064 496.008911,946.906250 
	C496.019104,949.930359 494.644501,951.136536 491.744995,950.999634 
	C490.249023,950.928955 488.745544,951.032349 487.247253,950.991699 
	C484.149231,950.907715 480.429565,951.928955 480.641876,945.582336 
	C473.657349,951.603394 466.561066,952.638306 458.626831,951.845154 
M452.002258,920.698486 
	C452.008972,922.029297 451.955322,923.363525 452.032349,924.690308 
	C452.479004,932.382324 458.324097,937.930237 466.016144,937.998108 
	C475.463379,938.081543 481.046967,931.964539 480.999329,921.583496 
	C480.958405,912.669373 475.557587,906.767639 466.822479,906.091858 
	C459.311920,905.510803 452.992523,911.368835 452.002258,920.698486 
z"/>
<path fill="#100F0D" opacity="1.000000" stroke="none" 
	d="
M1171.908203,894.229614 
	C1187.715820,893.842346 1184.782349,892.792786 1184.961304,906.122009 
	C1185.137817,919.277344 1184.876709,932.438721 1185.068848,945.593628 
	C1185.129517,949.743835 1183.655518,951.604187 1179.567261,950.968933 
	C1175.885010,950.396790 1170.857056,953.267578 1169.184204,946.358704 
	C1161.720459,951.889038 1153.630859,953.549072 1144.997803,951.106262 
	C1138.822998,949.359070 1134.316162,945.216064 1130.706177,940.024719 
	C1123.407471,929.528992 1124.227173,911.564453 1132.450806,902.089539 
	C1142.030151,891.052612 1151.988037,889.893555 1169.121338,897.823059 
	C1169.923218,896.659973 1170.723145,895.495544 1171.908203,894.229614 
M1145.509277,934.005310 
	C1152.419312,940.381836 1161.901489,940.003113 1166.951294,932.224487 
	C1169.172119,928.803345 1169.843140,923.856140 1169.828491,919.606689 
	C1169.792358,909.184875 1157.999634,902.779175 1148.864868,907.806213 
	C1139.608521,912.900146 1137.873901,924.388000 1145.509277,934.005310 
z"/>
<path fill="#100F0D" opacity="1.000000" stroke="none" 
	d="
M922.483154,926.863037 
	C908.297363,926.931702 894.550781,926.931702 880.772034,926.931702 
	C881.165100,934.816345 889.646790,940.324890 897.772888,938.748230 
	C899.549072,938.403625 901.544556,937.991821 902.906616,936.928711 
	C907.457458,933.376709 911.617188,934.307373 916.167847,936.980896 
	C920.238525,939.372253 921.018616,941.366760 917.062134,944.138123 
	C912.662476,947.219849 907.683899,950.470093 902.565491,951.339172 
	C888.664062,953.699707 877.557739,951.750793 869.432007,938.852295 
	C862.797424,928.320923 862.836548,916.788696 869.387390,906.221069 
	C876.113953,895.369751 886.370483,891.203674 899.269043,892.696228 
	C913.551636,894.348999 924.199951,905.415833 924.870117,922.241211 
	C924.929443,923.730713 923.604309,925.275391 922.483154,926.863037 
M904.809387,908.551575 
	C894.542236,902.970581 883.775635,905.600159 881.849976,914.469360 
	C890.682556,914.469360 899.439209,914.469360 909.406128,914.469360 
	C907.619446,912.035034 906.506958,910.519287 904.809387,908.551575 
z"/>
<path fill="#100F0D" opacity="1.000000" stroke="none" 
	d="
M267.902344,927.000000 
	C255.518082,927.000000 243.617859,927.000000 231.654602,927.000000 
	C232.388168,935.184998 240.385574,940.309448 248.703979,938.770386 
	C250.164215,938.500183 251.603333,937.993469 252.982315,937.426147 
	C262.131592,933.661804 262.150757,933.649414 271.035095,939.467834 
	C269.104584,944.693420 264.800995,947.470459 260.039551,949.414368 
	C245.056427,955.531372 225.418396,952.360657 218.369293,935.363525 
	C212.895157,922.164124 214.951141,906.950073 228.727386,897.179993 
	C239.569611,889.490662 257.195953,890.873535 266.934113,900.596130 
	C273.093872,906.745972 275.572021,914.789795 275.855011,923.303467 
	C276.044037,928.990723 271.176178,926.312744 267.902344,927.000000 
M244.516281,915.000000 
	C249.408630,915.000000 254.300980,915.000000 259.439362,915.000000 
	C257.783173,909.047363 252.427048,905.385315 246.274475,905.186584 
	C240.378220,904.996033 234.460403,908.849182 232.014679,915.000000 
	C236.025406,915.000000 239.778351,915.000000 244.516281,915.000000 
z"/>
<path fill="#100F0D" opacity="1.000000" stroke="none" 
	d="
M378.373718,1049.560669 
	C369.498688,1036.126343 369.606689,1022.691223 378.481079,1010.779236 
	C387.707886,998.394104 409.162842,996.344666 421.030365,1006.490906 
	C427.947693,1012.404968 430.925049,1020.028137 431.963409,1028.729248 
	C432.421051,1032.564331 430.944519,1034.122803 426.946014,1034.058960 
	C415.796417,1033.880371 404.641937,1033.982178 393.489563,1034.016235 
	C391.566864,1034.022095 389.644867,1034.238892 387.743317,1034.357056 
	C388.024231,1042.180176 395.245087,1047.784546 403.127258,1046.653320 
	C405.571289,1046.302734 407.973358,1045.456665 410.307159,1044.599121 
	C412.576538,1043.765259 415.017822,1041.430786 416.880341,1041.873291 
	C420.596313,1042.756226 423.967560,1045.089722 427.551239,1046.858765 
	C416.651276,1063.325562 392.067017,1064.528809 378.373718,1049.560669 
M415.230988,1020.866699 
	C412.473633,1015.007629 407.404968,1012.980286 401.428650,1013.085571 
	C395.807800,1013.184692 391.340210,1015.635437 388.281616,1021.462341 
	C397.521454,1021.462341 406.192566,1021.462341 415.230988,1020.866699 
z"/>
<path fill="#100F0D" opacity="1.000000" stroke="none" 
	d="
M1027.000000,938.978394 
	C1026.998779,929.652710 1026.966919,920.822266 1027.014160,911.992249 
	C1027.028809,909.248901 1026.758545,907.123047 1023.179565,906.905090 
	C1018.632507,906.628174 1020.141418,902.870361 1020.080933,900.356445 
	C1020.019043,897.783875 1018.882690,894.195801 1023.458435,894.027893 
	C1026.383789,893.920654 1027.031372,892.214172 1027.003052,889.723877 
	C1026.955811,885.559387 1027.075195,881.392273 1026.989990,877.229004 
	C1026.930420,874.310791 1028.132568,873.143799 1031.114502,872.958374 
	C1042.005249,872.280945 1041.948853,872.193970 1042.013428,882.960205 
	C1042.088257,895.452942 1040.533691,893.919312 1052.803345,893.985168 
	C1065.999756,894.055969 1066.000244,894.006348 1065.999878,907.144653 
	C1065.999390,919.973572 1065.870728,932.804504 1066.069824,945.630371 
	C1066.135010,949.826111 1064.591187,951.104858 1060.521729,951.076355 
	C1051.001831,951.009521 1051.000488,951.176575 1051.000122,941.678833 
	C1050.999878,932.015442 1051.000000,922.352112 1051.000000,912.688721 
	C1051.000000,910.902222 1051.000000,909.115662 1051.000000,907.431458 
	C1042.286499,906.380554 1042.006348,906.610535 1042.001465,914.348022 
	C1041.994751,924.844421 1041.877319,935.342896 1042.058716,945.836121 
	C1042.126465,949.750488 1040.707642,951.127197 1036.815308,951.056030 
	C1025.167114,950.843079 1027.198120,951.910339 1027.000000,938.978394 
z"/>
<path fill="#100F0D" opacity="1.000000" stroke="none" 
	d="
M678.232361,1008.756226 
	C688.403076,1020.218018 689.680054,1034.771606 681.806702,1046.777710 
	C674.469482,1057.966187 660.158630,1062.644287 646.510559,1058.315674 
	C632.689514,1053.932251 623.787231,1037.308105 627.559326,1022.925964 
	C631.609131,1007.485107 646.991150,996.967529 661.561462,1000.614990 
	C667.328857,1002.058777 672.519104,1005.807495 678.232361,1008.756226 
M664.121094,1016.124817 
	C663.044128,1015.688049 661.991516,1015.173584 660.886230,1014.827271 
	C654.851990,1012.937195 648.522583,1015.027466 644.989563,1020.033386 
	C640.984192,1025.708496 640.936401,1034.994507 644.885498,1040.239136 
	C648.562439,1045.122314 654.964294,1047.050293 660.963379,1045.174072 
	C666.418640,1043.467896 669.641602,1039.649170 670.843750,1034.270752 
	C672.420288,1027.217285 670.693909,1021.100098 664.121094,1016.124817 
z"/>
<path fill="#100F0D" opacity="1.000000" stroke="none" 
	d="
M553.790527,1053.266968 
	C542.068237,1041.610596 539.511780,1027.774170 546.506226,1015.000549 
	C552.069763,1004.840027 565.075012,998.421997 576.536133,1000.181091 
	C589.434998,1002.160889 599.128601,1011.772949 602.186584,1023.589233 
	C605.179810,1035.155273 597.344543,1050.516235 589.141968,1055.359741 
	C577.960510,1061.962280 564.944702,1061.543945 553.790527,1053.266968 
M559.750854,1038.452393 
	C564.489990,1045.185913 570.406250,1047.407959 577.317749,1045.050415 
	C584.282715,1042.674683 587.338806,1037.260132 586.990356,1027.912842 
	C586.588318,1017.127747 574.976624,1010.624329 565.628784,1015.948914 
	C558.429443,1020.049622 555.923340,1028.811890 559.750854,1038.452393 
z"/>
<path fill="#100F0D" opacity="1.000000" stroke="none" 
	d="
M675.634521,935.166992 
	C670.267029,919.710815 673.516479,906.858521 684.640991,898.576111 
	C696.214478,889.959534 710.230835,890.210510 721.902832,899.243591 
	C732.211121,907.221191 735.800232,921.214722 730.461426,933.845947 
	C725.950500,944.518372 717.839600,950.827576 706.207703,951.945007 
	C692.502197,953.261719 682.414551,947.503235 675.634521,935.166992 
M705.039673,937.898621 
	C712.705627,936.593262 716.350098,931.523621 717.659790,924.329346 
	C718.608826,919.116577 715.378479,911.761353 711.041565,909.073608 
	C706.493713,906.255371 698.586121,906.125671 694.866821,908.808350 
	C688.890503,913.119202 686.507751,920.663574 688.827759,927.930359 
	C690.995850,934.721436 695.962158,937.962769 705.039673,937.898621 
z"/>
<path fill="#100F0D" opacity="1.000000" stroke="none" 
	d="
M764.160767,951.998291 
	C748.797913,951.169739 736.852051,938.981934 736.026733,923.760742 
	C735.220276,908.887634 746.339661,895.295410 760.787109,892.868225 
	C774.471069,890.569214 789.237976,898.484192 794.218933,911.367737 
	C799.075073,923.928650 794.830933,938.783630 783.066895,947.164673 
	C777.652405,951.022217 771.324585,952.507263 764.160767,951.998291 
M756.612061,935.000854 
	C765.532593,940.418091 774.320251,938.709534 778.942993,930.476807 
	C782.261353,924.566833 781.828125,918.534607 778.196289,912.976501 
	C774.609192,907.486816 768.566895,905.467529 761.932312,907.343689 
	C755.713257,909.102295 752.209961,913.407227 751.282410,919.832947 
	C750.460510,925.526855 752.427856,930.275330 756.612061,935.000854 
z"/>
<path fill="#100F0D" opacity="1.000000" stroke="none" 
	d="
M135.000000,926.005737 
	C134.996948,933.169067 134.917099,939.834717 135.024628,946.497375 
	C135.075211,949.631714 133.901154,950.902710 130.658310,951.050781 
	C119.995468,951.537720 120.130287,951.639709 119.958786,940.812988 
	C119.821976,932.175659 119.362907,923.541931 118.957848,914.910889 
	C118.755272,910.594421 116.346764,906.962219 112.343803,906.668335 
	C109.199013,906.437378 104.920280,908.039124 102.855049,910.352844 
	C100.559807,912.924316 99.391533,917.175354 99.166008,920.784729 
	C98.647514,929.083008 98.866714,937.438599 99.055687,945.764832 
	C99.142792,949.602539 97.849167,951.059570 93.887146,951.075500 
	C83.999847,951.115356 84.000069,951.276428 83.999809,941.543701 
	C83.999458,928.048157 83.993858,914.552673 84.002350,901.057129 
	C84.006783,894.007874 84.024796,893.825134 91.284248,894.086121 
	C94.379639,894.197449 97.441124,895.252136 100.999023,895.976074 
	C105.791985,894.888489 111.648361,892.077576 117.185112,892.607361 
	C129.254700,893.762146 134.321472,900.828247 134.954880,914.511841 
	C135.124191,918.169678 134.993149,921.841431 135.000000,926.005737 
z"/>
<path fill="#100F0D" opacity="1.000000" stroke="none" 
	d="
M320.797150,936.385010 
	C322.630707,937.249268 324.281342,938.711304 325.625214,938.469360 
	C327.995697,938.042542 330.179108,936.576477 332.440826,935.545532 
	C331.462372,933.815369 330.891083,931.509949 329.423279,930.471130 
	C326.046417,928.080994 322.104736,926.504211 318.628235,924.235779 
	C313.643616,920.983154 309.377136,917.046265 309.019196,910.489990 
	C308.419861,899.512878 317.919525,890.320618 328.770599,892.458923 
	C334.039520,893.497314 338.938019,896.771606 343.788452,899.427612 
	C346.228577,900.763794 345.850128,902.914001 343.784241,904.735657 
	C342.536835,905.835571 341.309509,906.992371 340.262390,908.277771 
	C338.321503,910.660706 336.400208,910.952332 333.888489,909.003662 
	C332.346222,907.807129 330.454803,906.502563 328.642334,906.377930 
	C327.009338,906.265625 325.270325,907.694214 323.578064,908.443115 
	C324.435242,909.817627 324.974976,911.694885 326.208313,912.473694 
	C330.140167,914.956482 334.463440,916.820007 338.391205,919.308411 
	C345.802704,924.004028 348.675354,930.223694 346.747009,938.402710 
	C345.077057,945.485901 340.171021,949.899109 333.049957,951.402893 
	C324.480682,953.212463 316.491394,951.865234 309.590698,946.066956 
	C307.181244,944.042542 306.408356,941.990479 309.036743,939.386169 
	C311.222534,937.220520 313.079224,934.722656 315.136780,932.307312 
	C317.284332,933.879150 318.880219,935.047302 320.797150,936.385010 
z"/>
<path fill="#100F0D" opacity="1.000000" stroke="none" 
	d="
M199.872818,895.621399 
	C204.897430,894.695251 209.701172,894.102966 216.005096,893.325684 
	C212.628510,901.455078 209.939865,908.133728 207.090134,914.742981 
	C202.354706,925.725525 197.644989,936.723877 192.579529,947.554321 
	C191.831314,949.154053 189.188477,950.779114 187.431625,950.768921 
	C185.154175,950.755737 181.557083,949.714600 180.818604,948.080750 
	C172.966766,930.708496 165.569382,913.130798 158.065536,895.652832 
	C165.570587,891.571899 172.664124,893.591248 175.720398,900.498230 
	C179.275177,908.531738 182.666626,916.637451 186.690720,926.021851 
	C191.328156,915.264221 195.490051,905.609741 199.872818,895.621399 
z"/>
<path fill="#100F0D" opacity="1.000000" stroke="none" 
	d="
M1110.121948,930.138916 
	C1107.727417,935.858704 1105.373047,941.184692 1103.213379,946.588562 
	C1101.931274,949.796814 1099.867065,951.100281 1096.346558,951.096130 
	C1093.075806,951.092224 1091.218018,950.114929 1089.907837,946.985474 
	C1083.036011,930.571655 1075.959595,914.243408 1068.974121,897.876953 
	C1068.656738,897.133606 1068.531128,896.308533 1068.327759,895.563843 
	C1075.696045,891.357361 1082.857788,893.758057 1085.906372,901.142334 
	C1089.187622,909.090271 1092.655151,916.961304 1096.448364,925.815613 
	C1100.182861,917.369141 1103.470215,909.821289 1106.851440,902.315674 
	C1110.858154,893.421936 1114.354004,891.957581 1125.166260,895.172485 
	C1120.166626,906.766663 1115.205322,918.272217 1110.121948,930.138916 
z"/>
<path fill="#100F0D" opacity="1.000000" stroke="none" 
	d="
M611.263062,1058.987061 
	C608.020081,1059.084839 606.997314,1057.625977 607.000549,1054.974731 
	C607.029419,1031.347534 607.036987,1007.720276 606.991638,984.093201 
	C606.985840,981.077148 608.364624,980.121521 611.242065,979.961853 
	C622.004150,979.364929 621.999939,979.287598 622.000000,990.061157 
	C622.000061,1010.360657 622.001221,1030.660156 621.999329,1050.959595 
	C621.998535,1058.999268 621.995361,1058.999390 613.717346,1058.999878 
	C613.051758,1058.999878 612.386230,1058.996704 611.263062,1058.987061 
z"/>
<path fill="#100F0D" opacity="1.000000" stroke="none" 
	d="
M947.008179,906.812134 
	C941.245850,913.136963 943.068604,920.920349 942.157959,927.982056 
	C941.398071,933.874207 941.877075,939.945129 942.041931,945.930359 
	C942.138733,949.446411 941.034607,950.999695 937.234924,951.070740 
	C926.997498,951.261963 926.999146,951.409119 926.998413,941.151306 
	C926.997375,928.006897 926.888794,914.860718 927.094543,901.719543 
	C927.133911,899.205261 927.639893,895.657349 929.294739,894.439148 
	C932.205627,892.296204 939.721130,894.347656 940.974609,895.822815 
	C945.865723,894.669373 950.116943,893.177307 954.464233,892.803467 
	C957.688660,892.526184 958.540161,895.073547 957.405823,898.030273 
	C957.286682,898.340820 957.075378,898.632568 957.027405,898.951111 
	C956.184875,904.540283 952.841492,906.940613 947.008179,906.812134 
z"/>
<path fill="#100F0D" opacity="1.000000" stroke="none" 
	d="
M281.356995,950.952515 
	C279.938263,949.137329 278.156952,947.360962 278.130188,945.558533 
	C277.904938,930.409668 277.960602,915.255798 278.044464,900.104065 
	C278.057007,897.833374 276.990082,894.240417 280.739380,894.257324 
	C284.522888,894.274292 289.699097,891.413635 291.596436,897.755554 
	C294.390137,896.126160 297.013428,893.855408 300.026489,893.058716 
	C302.426941,892.424133 305.460968,893.213318 307.855469,894.221313 
	C308.444977,894.469543 307.920563,898.106201 307.413971,900.056763 
	C306.439758,903.807678 305.445496,907.049133 299.872986,906.379639 
	C296.072021,905.923035 294.573669,910.121704 294.245575,913.496887 
	C293.587738,920.263977 293.314636,927.072388 293.028839,933.869934 
	C292.868134,937.692810 292.770142,941.545410 293.058624,945.353210 
	C293.393188,949.768250 291.637878,951.505066 287.298767,951.030518 
	C285.488190,950.832520 283.639191,950.985718 281.356995,950.952515 
z"/>
<path fill="#100F0D" opacity="1.000000" stroke="none" 
	d="
M855.337402,1001.048706 
	C868.278870,1000.938232 866.961487,1000.241760 866.992065,1012.353760 
	C867.026123,1025.821533 866.847900,1039.292236 867.078735,1052.756226 
	C867.161560,1057.588257 865.369019,1059.516968 860.651917,1059.022339 
	C859.171326,1058.867065 857.658569,1058.927124 856.165771,1058.998657 
	C853.208923,1059.140381 851.980408,1057.786377 851.989868,1054.833252 
	C852.043091,1038.206543 851.953430,1021.578674 852.142578,1004.953857 
	C852.157410,1003.651001 853.929565,1002.368103 855.337402,1001.048706 
z"/>
<path fill="#100F0D" opacity="1.000000" stroke="none" 
	d="
M141.000000,911.002075 
	C141.002869,906.514038 141.097031,902.522888 140.979202,898.537903 
	C140.887863,895.448853 142.018402,894.107300 145.287460,893.948608 
	C156.004715,893.428528 155.999802,893.322205 155.999954,904.083740 
	C156.000137,917.212646 156.003357,930.341492 155.998505,943.470398 
	C155.995712,951.008545 155.989655,951.008545 148.219864,950.999939 
	C148.053680,950.999756 147.887482,951.000244 147.721298,950.999695 
	C141.031570,950.975952 141.013336,950.975952 141.004303,944.406921 
	C140.989212,933.438477 141.000061,922.470032 141.000000,911.002075 
z"/>
<path fill="#100F0D" opacity="1.000000" stroke="none" 
	d="
M359.895569,950.999268 
	C357.934052,950.993469 356.436249,950.943054 354.941528,950.990540 
	C352.239777,951.076294 350.998962,949.836609 351.004395,947.107727 
	C351.037079,930.646851 350.946686,914.184875 351.181122,897.727295 
	C351.198914,896.479675 353.396271,895.243530 354.631470,894.054993 
	C354.808350,893.884827 355.274994,894.021729 355.607056,894.006042 
	C365.999725,893.515137 366.000031,893.514954 365.999969,903.911316 
	C365.999878,917.711975 365.865295,931.514771 366.077759,945.312134 
	C366.144470,949.646362 364.744843,951.587646 359.895569,950.999268 
z"/>
<path fill="#100F0D" opacity="1.000000" stroke="none" 
	d="
M865.644714,994.762817 
	C861.583618,997.551208 857.687256,997.974976 853.794983,995.415588 
	C850.126282,993.003418 848.837524,989.067200 850.421265,985.442993 
	C851.639038,982.656189 854.506714,979.884094 857.316772,978.669800 
	C861.236816,976.975830 864.737610,979.473450 867.017639,982.789307 
	C869.803650,986.841003 869.329590,990.880493 865.644714,994.762817 
z"/>
<path fill="#100F0D" opacity="1.000000" stroke="none" 
	d="
M148.247208,889.768188 
	C140.959457,887.356018 138.175400,883.127808 139.948578,877.686157 
	C141.596649,872.628357 144.831482,870.521790 150.161835,871.035095 
	C154.192947,871.423279 157.562469,874.778320 157.963760,878.803467 
	C158.482208,884.003784 156.266800,887.660400 151.540665,889.270264 
	C150.614166,889.585815 149.600723,889.646118 148.247208,889.768188 
z"/>
<path fill="#100F0D" opacity="1.000000" stroke="none" 
	d="
M1067.656006,877.752930 
	C1068.721680,883.491638 1066.688843,887.097351 1061.619385,889.188721 
	C1057.257812,890.988037 1054.214722,889.046021 1051.563354,885.977051 
	C1048.109863,881.979736 1048.583008,876.382812 1052.508057,873.102051 
	C1056.374268,869.870361 1062.157715,870.240967 1065.437622,874.025879 
	C1066.290527,875.010132 1066.850708,876.247986 1067.656006,877.752930 
z"/>
<path fill="#100F0D" opacity="1.000000" stroke="none" 
	d="
M359.002563,889.822815 
	C353.652466,888.982544 350.448364,886.389526 350.037018,881.090759 
	C349.607483,875.557617 352.069916,871.943054 356.768280,871.128540 
	C362.109436,870.202576 366.310120,872.339661 367.624878,876.651733 
	C369.249756,881.980957 367.076782,887.038635 362.248688,889.038086 
	C361.341309,889.414001 360.341797,889.567322 359.002563,889.822815 
z"/>
<path fill="#000000" opacity="1.000000" stroke="none" 
	d="
M347.264282,1018.792358 
	C352.963806,1026.949829 352.460999,1036.540894 346.247589,1042.211426 
	C341.919037,1046.161621 336.820831,1047.222412 331.442017,1045.094360 
	C325.755402,1042.844482 322.305939,1038.569092 322.017426,1032.215820 
	C321.485565,1020.503723 327.749634,1013.062256 337.818359,1014.202271 
	C341.003235,1014.562988 343.950378,1017.022766 347.264282,1018.792358 
z"/>
<path fill="#000000" opacity="1.000000" stroke="none" 
	d="
M522.338013,934.762512 
	C513.825134,925.805115 515.747314,912.095581 525.703674,907.652893 
	C530.906982,905.331116 535.730164,905.696045 540.292236,908.953308 
	C545.542664,912.702209 547.465759,918.185181 546.596130,924.242737 
	C544.746765,937.124817 533.944641,941.828308 522.338013,934.762512 
z"/>
<path fill="#000000" opacity="1.000000" stroke="none" 
	d="
M822.702148,1014.891907 
	C829.213501,1018.481262 832.765808,1025.305054 831.900391,1032.025757 
	C831.075867,1038.429077 826.581177,1043.935425 820.905701,1045.495239 
	C812.300720,1047.860107 804.083313,1042.334717 802.244568,1032.947388 
	C800.461914,1023.846069 806.682068,1014.856567 815.465759,1014.123474 
	C817.724487,1013.934998 820.046692,1014.507996 822.702148,1014.891907 
z"/>
<path fill="#000000" opacity="1.000000" stroke="none" 
	d="
M408.466003,908.326416 
	C418.183167,915.734497 418.518036,929.681519 409.442566,935.682007 
	C403.896118,939.349182 395.526031,938.771179 390.956299,934.405334 
	C385.920837,929.594604 384.639893,919.648621 388.280945,913.632874 
	C392.040466,907.421387 399.098114,904.805359 405.865601,907.137146 
	C406.645844,907.405945 407.383942,907.797058 408.466003,908.326416 
z"/>
<path fill="#000000" opacity="1.000000" stroke="none" 
	d="
M845.998169,922.911865 
	C845.428345,932.826172 839.596252,938.247864 830.242493,937.994385 
	C822.211731,937.776794 817.462769,931.996521 816.914856,923.033203 
	C816.220093,911.666565 824.152161,906.281860 831.123230,906.043823 
	C839.722046,905.750183 845.730957,912.421143 845.998169,922.911865 
z"/>
<path fill="#000000" opacity="1.000000" stroke="none" 
	d="
M890.212524,1019.297363 
	C896.798035,1012.811890 904.819519,1012.184631 910.888672,1017.435730 
	C916.741272,1022.499512 917.861877,1033.918213 913.125122,1040.225952 
	C908.630676,1046.210938 900.351685,1047.826538 894.010742,1043.956055 
	C886.034485,1039.087402 884.068604,1027.269165 890.212524,1019.297363 
z"/>
<path fill="#000000" opacity="1.000000" stroke="none" 
	d="
M979.421875,935.829712 
	C972.661133,929.201050 970.899780,920.899048 974.542908,913.944763 
	C977.612366,908.085571 983.760376,905.121399 989.964172,906.509766 
	C997.538635,908.204895 1001.900330,913.090027 1001.944580,920.301208 
	C1001.961731,923.088379 1001.972412,926.088379 1001.021301,928.630371 
	C997.686279,937.543396 988.324951,940.667786 979.421875,935.829712 
z"/>
<path fill="#000000" opacity="1.000000" stroke="none" 
	d="
M452.005524,920.261292 
	C452.992523,911.368835 459.311920,905.510803 466.822479,906.091858 
	C475.557587,906.767639 480.958405,912.669373 480.999329,921.583496 
	C481.046967,931.964539 475.463379,938.081543 466.016144,937.998108 
	C458.324097,937.930237 452.479004,932.382324 452.032349,924.690308 
	C451.955322,923.363525 452.008972,922.029297 452.005524,920.261292 
z"/>
<path fill="#000000" opacity="1.000000" stroke="none" 
	d="
M1145.249023,933.740845 
	C1137.873901,924.388000 1139.608521,912.900146 1148.864868,907.806213 
	C1157.999634,902.779175 1169.792358,909.184875 1169.828491,919.606689 
	C1169.843140,923.856140 1169.172119,928.803345 1166.951294,932.224487 
	C1161.901489,940.003113 1152.419312,940.381836 1145.249023,933.740845 
z"/>
<path fill="#000000" opacity="1.000000" stroke="none" 
	d="
M905.101929,908.777588 
	C906.506958,910.519287 907.619446,912.035034 909.406128,914.469360 
	C899.439209,914.469360 890.682556,914.469360 881.849976,914.469360 
	C883.775635,905.600159 894.542236,902.970581 905.101929,908.777588 
z"/>
<path fill="#000000" opacity="1.000000" stroke="none" 
	d="
M244.023773,915.000000 
	C239.778351,915.000000 236.025406,915.000000 232.014679,915.000000 
	C234.460403,908.849182 240.378220,904.996033 246.274475,905.186584 
	C252.427048,905.385315 257.783173,909.047363 259.439362,915.000000 
	C254.300980,915.000000 249.408630,915.000000 244.023773,915.000000 
z"/>
<path fill="#000000" opacity="1.000000" stroke="none" 
	d="
M415.047333,1021.164551 
	C406.192566,1021.462341 397.521454,1021.462341 388.281616,1021.462341 
	C391.340210,1015.635437 395.807800,1013.184692 401.428650,1013.085571 
	C407.404968,1012.980286 412.473633,1015.007629 415.047333,1021.164551 
z"/>
<path fill="#000000" opacity="1.000000" stroke="none" 
	d="
M664.441528,1016.323853 
	C670.693909,1021.100098 672.420288,1027.217285 670.843750,1034.270752 
	C669.641602,1039.649170 666.418640,1043.467896 660.963379,1045.174072 
	C654.964294,1047.050293 648.562439,1045.122314 644.885498,1040.239136 
	C640.936401,1034.994507 640.984192,1025.708496 644.989563,1020.033386 
	C648.522583,1015.027466 654.851990,1012.937195 660.886230,1014.827271 
	C661.991516,1015.173584 663.044128,1015.688049 664.441528,1016.323853 
z"/>
<path fill="#000000" opacity="1.000000" stroke="none" 
	d="
M559.570435,1038.106934 
	C555.923340,1028.811890 558.429443,1020.049622 565.628784,1015.948914 
	C574.976624,1010.624329 586.588318,1017.127747 586.990356,1027.912842 
	C587.338806,1037.260132 584.282715,1042.674683 577.317749,1045.050415 
	C570.406250,1047.407959 564.489990,1045.185913 559.570435,1038.106934 
z"/>
<path fill="#000000" opacity="1.000000" stroke="none" 
	d="
M704.619507,937.930725 
	C695.962158,937.962769 690.995850,934.721436 688.827759,927.930359 
	C686.507751,920.663574 688.890503,913.119202 694.866821,908.808350 
	C698.586121,906.125671 706.493713,906.255371 711.041565,909.073608 
	C715.378479,911.761353 718.608826,919.116577 717.659790,924.329346 
	C716.350098,931.523621 712.705627,936.593262 704.619507,937.930725 
z"/>
<path fill="#000000" opacity="1.000000" stroke="none" 
	d="
M756.332764,934.752075 
	C752.427856,930.275330 750.460510,925.526855 751.282410,919.832947 
	C752.209961,913.407227 755.713257,909.102295 761.932312,907.343689 
	C768.566895,905.467529 774.609192,907.486816 778.196289,912.976501 
	C781.828125,918.534607 782.261353,924.566833 778.942993,930.476807 
	C774.320251,938.709534 765.532593,940.418091 756.332764,934.752075 
z"/>
</svg>